HIERARCHY
ROOT Hips
{
    OFFSET 0.000000 0.000000 0.000000
    CHANNELS 6 Xposition Yposition Zposition Zrotation Xrotation Yrotation
    JOINT Spine
    {
        OFFSET -0.000000 7.925200 0.000000
        CHANNELS 3 Zrotation Xrotation Yrotation
        JOINT Spine1
        {
            OFFSET -0.000000 23.364719 0.000000
            CHANNELS 3 Zrotation Xrotation Yrotation
            JOINT Neck
            {
                OFFSET -0.000000 23.268766 2.115342
                CHANNELS 3 Zrotation Xrotation Yrotation
                JOINT Head
                {
                    OFFSET -0.000000 13.530829 -1.932976
                    CHANNELS 3 Zrotation Xrotation Yrotation
                    End Site
                    {
                        OFFSET -0.000000 24.162195 0.000000
                    }
                }
            }
            JOINT LeftShoulder
            {
                OFFSET 3.858291 22.792089 -0.033814
                CHANNELS 3 Zrotation Xrotation Yrotation
                JOINT LeftArm
                {
                    OFFSET 7.057024 0.000000 0.000000
                    CHANNELS 3 Zrotation Xrotation Yrotation
                    JOINT LeftForeArm
                    {
                        OFFSET 34.734173 0.000000 0.000000
                        CHANNELS 3 Zrotation Xrotation Yrotation
                        JOINT LeftHand
                        {
                            OFFSET 23.943203 0.000000 0.000000
                            CHANNELS 3 Zrotation Xrotation Yrotation
                            End Site
                            {
                                OFFSET 14.497317 0.000000 0.000000
                            }
                        }
                    }
                }
            }
            JOINT RightShoulder
            {
                OFFSET -3.868823 22.792089 -0.033814
                CHANNELS 3 Zrotation Xrotation Yrotation
                JOINT RightArm
                {
                    OFFSET -7.057024 0.000000 0.000000
                    CHANNELS 3 Zrotation Xrotation Yrotation
                    JOINT RightForeArm
                    {
                        OFFSET -34.734173 0.000000 0.000000
                        CHANNELS 3 Zrotation Xrotation Yrotation
                        JOINT RightHand
                        {
                            OFFSET -23.943203 0.000000 0.000000
                            CHANNELS 3 Zrotation Xrotation Yrotation
                            End Site
                            {
                                OFFSET -14.497317 0.000000 0.000000
                            }
                        }
                    }
                }
            }
        }
    }
    JOINT LeftUpLeg
    {
        OFFSET 9.664878 0.000000 0.000000
        CHANNELS 3 Zrotation Xrotation Yrotation
        JOINT LeftLeg
        {
            OFFSET -0.000000 -38.728706 0.000000
            CHANNELS 3 Zrotation Xrotation Yrotation
            JOINT LeftFoot
            {
                OFFSET -0.000000 -40.242161 0.000000
                CHANNELS 3 Zrotation Xrotation Yrotation
                JOINT LeftToeBase
                {
                    OFFSET -0.000000 -6.282171 14.497317
                    CHANNELS 3 Zrotation Xrotation Yrotation
                    End Site
                    {
                        OFFSET -0.000000 0.000000 3.865951
                    }
                }
            }
        }
    }
    JOINT RightUpLeg
    {
        OFFSET -9.664878 0.000000 0.000000
        CHANNELS 3 Zrotation Xrotation Yrotation
        JOINT RightLeg
        {
            OFFSET -0.000000 -38.728706 0.000000
            CHANNELS 3 Zrotation Xrotation Yrotation
            JOINT RightFoot
            {
                OFFSET -0.000000 -40.242161 0.000000
                CHANNELS 3 Zrotation Xrotation Yrotation
                JOINT RightToeBase
                {
                    OFFSET -0.000000 -6.282171 14.497317
                    CHANNELS 3 Zrotation Xrotation Yrotation
                    End Site
                    {
                        OFFSET -0.000000 0.000000 3.865951
                    }
                }
            }
        }
    }
}
MOTION
Frames:    7
Frame Time:    0.008333
125.860298    89.567703    6.168734    0.919274    0.368888    92.612160    -6.962470    -4.342139    -1.398138    8.154222    -0.073331    -1.128573    -8.833520    16.960888    5.866776    12.065808    -1.034577    7.874034    24.411469    -7.613291    5.914298    0.786693    -12.634295    -10.794116    22.011368    -18.020113    -14.337966    16.554352    -15.760433    -3.040781    1.262354    7.006738    7.244165    39.740124    60.492744    21.699400    -1.680381    -8.265265    17.577957    7.319717    -7.805583    3.199124    3.527892    5.315702    -2.762201    -0.816580    1.697128    -3.450683    -3.960018    -2.708658    10.495529    0.000000    0.000000    0.000000    3.296060    4.043097    -3.259399    -0.990844    5.635904    1.625542    -0.225310    -5.026361    -14.305570    0.000000    0.000000    0.000000    
125.869713    89.540581    6.322000    0.948848    0.204670    92.534019    -6.677843    -4.194635    -1.391560    7.249874    -0.363051    -1.123592    -8.636202    17.287796    5.963874    12.183842    -1.132043    7.977417    24.114206    -7.526016    6.140579    0.359710    -13.061051    -10.132680    21.202339    -17.798763    -13.520239    16.483070    -15.735515    -2.679847    1.177228    7.096349    7.639872    39.897552    60.666096    21.777077    -1.868304    -8.283228    17.644819    7.820824    -7.751614    3.614603    3.801574    5.333828    -2.639351    -0.840528    1.740872    -3.502867    -3.941081    -2.855881    10.497767    0.000000    0.000000    0.000000    3.558548    4.092075    -3.158145    -0.985835    5.585479    1.577690    -0.305822    -4.991281    -14.275832    0.000000    0.000000    0.000000    
125.852547    89.507980    6.471694    0.929973    0.074286    92.458221    -6.581851    -4.053223    -1.302013    6.564690    -0.708117    -1.028152    -9.144470    17.634388    6.022179    13.471167    -1.282338    8.217789    23.683439    -7.182000    6.265049    -0.212885    -14.042637    -9.454943    20.307526    -17.919859    -12.891284    16.218441    -16.110758    -2.998505    1.090850    7.459015    7.574127    39.175144    60.830162    22.693441    -1.962033    -8.299130    17.904478    7.631163    -7.783113    3.182659    4.036242    5.305770    -2.701779    -0.862288    1.743506    -3.406794    -3.933766    -2.972636    10.527704    0.000000    0.000000    0.000000    3.790427    4.041697    -3.106689    -1.009347    5.587105    1.520702    -0.386253    -4.977253    -14.157037    0.000000    0.000000    0.000000    
125.840019    89.494064    6.614996    0.926112    -0.067876    92.372757    -6.706402    -3.936427    -1.035484    6.259666    -1.113038    -0.743802    -9.127743    18.211941    5.818157    13.970345    -1.439100    8.052365    23.068760    -7.124527    5.557602    -0.479985    -13.911965    -8.654209    19.784550    -18.375923    -11.033847    15.940066    -17.013062    -3.571421    1.092465    7.540707    7.409511    39.124691    61.127419    22.595970    -2.005935    -8.528951    18.193542    7.478242    -8.013168    3.064053    4.286664    5.249705    -2.682254    -0.909271    1.845621    -3.453403    -3.925400    -3.106057    10.635441    0.000000    0.000000    0.000000    4.018456    4.038688    -3.084786    -1.010214    5.526651    1.518106    -0.410682    -4.896420    -14.085971    0.000000    0.000000    0.000000    
125.849533    89.470940    6.768483    0.947468    -0.259519    92.236275    -6.582202    -4.061125    -0.816510    5.435498    -0.720167    -0.548519    -8.420353    17.868668    5.547031    14.144691    -1.360177    7.829685    23.310722    -7.103684    5.901920    -1.407227    -15.281175    -8.150045    18.514847    -18.251631    -10.426769    16.042206    -17.141727    -3.828376    1.209983    7.089136    6.798985    38.327038    61.669033    23.432888    -1.941770    -8.518742    18.672510    7.429372    -8.011107    2.986801    4.609755    5.289130    -2.606365    -1.018432    1.810695    -3.489368    -3.854954    -3.196510    10.776365    0.000000    0.000000    0.000000    4.302319    4.059999    -3.085909    -1.025697    5.497401    1.674831    -0.186191    -4.986199    -14.150340    0.000000    0.000000    0.000000    
125.848816    89.456978    6.892752    0.961104    -0.382379    92.121704    -6.310816    -4.177130    -0.794309    4.549437    -0.486231    -0.544435    -8.564392    17.856422    5.631258    14.866437    -1.450100    8.039969    23.345200    -7.395720    6.251406    -2.341535    -16.081486    -7.321741    17.486698    -18.117819    -10.085517    16.406233    -17.157299    -3.797914    1.048307    6.999699    6.991517    38.083710    61.884384    24.029932    -2.183545    -8.562671    18.791073    7.489846    -8.020550    2.852571    4.792746    5.292409    -2.580271    -0.995433    1.856214    -3.397675    -3.892211    -3.299142    10.770169    0.000000    0.000000    0.000000    4.482732    4.095563    -2.907221    -0.988459    5.423861    1.566124    -0.258997    -4.913946    -14.087057    0.000000    0.000000    0.000000    
125.859383    89.448441    7.009980    0.995123    -0.470176    91.962830    -6.229888    -4.127447    -0.697965    3.955611    -0.590357    -0.452901    -8.795856    18.211054    5.615670    15.572793    -1.727154    8.138482    22.605835    -7.071533    6.238421    -2.510597    -16.842297    -6.484515    16.605864    -18.061409    -9.151263    16.735229    -17.301590    -3.678606    0.859259    7.083307    7.109806    37.867107    61.876980    24.428871    -2.232902    -8.544796    19.025776    7.464454    -7.999922    2.706990    4.953244    5.361434    -2.544149    -0.965906    1.908104    -3.452398    -3.988554    -3.440289    10.864177    0.000000    0.000000    0.000000    4.637537    4.127734    -2.795681    -0.970418    5.427771    1.434282    -0.320380    -4.892310    -13.942952    0.000000    0.000000    0.000000    
